<mxfile host="app.diagrams.net" agent="Mozilla/5.0 (Windows NT 10.0; Win64; x64) AppleWebKit/537.36 (KHTML, like Gecko) Chrome/136.0.0.0 Safari/537.36 Edg/136.0.0.0" version="27.0.8">
  <diagram name="Page-1" id="e7e014a7-5840-1c2e-5031-d8a46d1fe8dd">
    <mxGraphModel dx="860" dy="839" grid="1" gridSize="10" guides="1" tooltips="1" connect="1" arrows="1" fold="1" page="1" pageScale="1" pageWidth="1169" pageHeight="826" background="none" math="0" shadow="0">
      <root>
        <mxCell id="0" />
        <mxCell id="1" parent="0" />
        <mxCell id="nQisF_JksVel5cSUi8cc-41" value="Apache" style="rounded=0;whiteSpace=wrap;html=1;" vertex="1" parent="1">
          <mxGeometry x="180" y="370" width="120" height="60" as="geometry" />
        </mxCell>
        <mxCell id="nQisF_JksVel5cSUi8cc-42" value="FinmarkFrontUI" style="rounded=0;whiteSpace=wrap;html=1;" vertex="1" parent="1">
          <mxGeometry x="380" y="240" width="120" height="60" as="geometry" />
        </mxCell>
        <mxCell id="nQisF_JksVel5cSUi8cc-43" value="Order Service" style="rounded=0;whiteSpace=wrap;html=1;" vertex="1" parent="1">
          <mxGeometry x="380" y="320" width="120" height="60" as="geometry" />
        </mxCell>
        <mxCell id="nQisF_JksVel5cSUi8cc-44" value="Inventory Service" style="rounded=0;whiteSpace=wrap;html=1;" vertex="1" parent="1">
          <mxGeometry x="380" y="400" width="120" height="60" as="geometry" />
        </mxCell>
        <mxCell id="nQisF_JksVel5cSUi8cc-45" value="Dashboard Service" style="rounded=0;whiteSpace=wrap;html=1;" vertex="1" parent="1">
          <mxGeometry x="380" y="480" width="120" height="60" as="geometry" />
        </mxCell>
        <mxCell id="nQisF_JksVel5cSUi8cc-47" style="edgeStyle=orthogonalEdgeStyle;rounded=0;orthogonalLoop=1;jettySize=auto;html=1;" edge="1" parent="1" source="nQisF_JksVel5cSUi8cc-46" target="nQisF_JksVel5cSUi8cc-41">
          <mxGeometry relative="1" as="geometry" />
        </mxCell>
        <mxCell id="nQisF_JksVel5cSUi8cc-46" value="Browser" style="rounded=0;whiteSpace=wrap;html=1;" vertex="1" parent="1">
          <mxGeometry y="370" width="120" height="60" as="geometry" />
        </mxCell>
      </root>
    </mxGraphModel>
  </diagram>
</mxfile>
